nColumns=19
nRows=31
DataType=double
version=3
OpenSimVersion=4.1
endheader
time	ground_force_calcn_r_vx	ground_force_calcn_r_vy	ground_force_calcn_r_vz	ground_force_calcn_r_px	ground_force_calcn_r_py	ground_force_calcn_r_pz	ground_force_calcn_r_mx	ground_force_calcn_r_my	ground_force_calcn_r_mz	ground_force_calcn_l_vx	ground_force_calcn_l_vy	ground_force_calcn_l_vz	ground_force_calcn_l_px	ground_force_calcn_l_py	ground_force_calcn_l_pz	ground_force_calcn_l_mx	ground_force_calcn_l_my	ground_force_calcn_l_mz
10.03	4.24656	323.034	-36.4788	-0.265618	0	-0.419248	-0.00409214	-0.311288	0.0351523	-8.64154	191.946	35.3189	-0.159413	0	-0.77934	-0.0147598	0.327844	0.0603248
10.04	3.77356	320.257	-36.5349	-0.264431	0	-0.418813	-0.00331608	-0.281431	0.0321056	-8.66342	185.145	34.2875	-0.157014	0	-0.779154	-0.015763	0.33687	0.0623857
10.05	3.31703	317.494	-36.5481	-0.263205	0	-0.418371	-0.00254351	-0.243456	0.0280253	-8.68612	178.501	33.2947	-0.154563	0	-0.778966	-0.0167261	0.343725	0.0641127
10.06	2.89314	314.794	-36.5167	-0.261948	0	-0.417929	-0.0018255	-0.198627	0.0230412	-8.71297	172.117	32.352	-0.152064	0	-0.778785	-0.0176136	0.347941	0.0654007
10.07	2.51528	312.197	-36.4406	-0.260666	0	-0.417487	-0.00119701	-0.148573	0.0173419	-8.74554	166.098	31.4678	-0.149529	0	-0.778621	-0.018401	0.349477	0.0662095
10.08	2.18871	309.735	-36.3212	-0.259355	0	-0.41705	-0.000671741	-0.095061	0.0111474	-8.78499	160.543	30.6488	-0.146974	0	-0.778478	-0.0190723	0.348541	0.066539
10.09	1.90945	307.426	-36.1622	-0.258011	0	-0.416613	-0.000247109	-0.039785	0.00467987	-8.83352	155.547	29.9016	-0.144424	0	-0.778365	-0.0196206	0.345494	0.0664161
10.1	1.66743	305.284	-35.9683	-0.256625	0	-0.416177	8.60943e-05	0.0157627	-0.00185715	-8.89467	151.195	29.2335	-0.141909	0	-0.778286	-0.0200451	0.340735	0.0658808
10.11	1.4524	303.317	-35.7434	-0.255191	0	-0.415735	0.000336704	0.0703169	-0.00828627	-8.97256	147.557	28.6524	-0.139464	0	-0.778248	-0.0203478	0.334626	0.0649772
10.12	1.26002	301.532	-35.4903	-0.25371	0	-0.415288	0.000513137	0.122798	-0.0144532	-9.07085	144.684	28.1664	-0.137126	0	-0.778257	-0.0205273	0.327418	0.0637404
10.13	1.09567	299.951	-35.211	-0.252189	0	-0.414834	0.000629289	0.172274	-0.0202231	-9.1928	142.613	27.7839	-0.134937	0	-0.778317	-0.0205782	0.319241	0.0621944
10.14	0.974937	298.605	-34.9075	-0.250648	0	-0.414375	0.000711025	0.217774	-0.0254582	-9.34123	141.368	27.5123	-0.132934	0	-0.778433	-0.0205059	0.310332	0.0603951
10.15	0.921351	297.536	-34.5843	-0.249105	0	-0.413914	0.000799336	0.258133	-0.0300043	-9.51818	140.96	27.3573	-0.131141	0	-0.778606	-0.0203308	0.301089	0.0584349
10.16	0.959527	296.797	-34.2497	-0.247582	0	-0.413455	0.000944024	0.292001	-0.0336964	-9.72499	141.387	27.3217	-0.129576	0	-0.778839	-0.0200882	0.292051	0.0564364
10.17	1.10544	296.446	-33.9152	-0.246093	0	-0.413003	0.00118553	0.317925	-0.0363725	-9.96204	142.635	27.4067	-0.128244	0	-0.779129	-0.01984	0.284068	0.0545821
10.18	1.36168	296.546	-33.5942	-0.244648	0	-0.41256	0.00153561	0.334422	-0.0378851	-10.2286	144.681	27.6114	-0.127138	0	-0.779478	-0.0196654	0.278162	0.0530856
10.19	1.71939	297.153	-33.3031	-0.243251	0	-0.41213	0.00196774	0.340074	-0.0381134	-10.5232	147.482	27.935	-0.126242	0	-0.779882	-0.0196394	0.275245	0.052135
10.2	2.16363	298.324	-33.0588	-0.241908	0	-0.411714	0.00242032	0.333716	-0.0369809	-10.8452	150.983	28.3767	-0.125538	0	-0.780335	-0.0198073	0.275752	0.0518264
10.21	2.67881	300.102	-32.8775	-0.24062	0	-0.411312	0.00280721	0.314485	-0.0344533	-11.1936	155.115	28.9375	-0.125	0	-0.78083	-0.0201642	0.279425	0.0521281
10.22	3.25141	302.512	-32.7747	-0.239392	0	-0.410922	0.00302811	0.281735	-0.0305237	-11.5663	159.791	29.6181	-0.124601	0	-0.781361	-0.0206627	0.285461	0.0529117
10.23	3.87081	305.554	-32.7661	-0.238225	0	-0.410538	0.00297882	0.235142	-0.0252155	-11.9588	164.911	30.4171	-0.124313	0	-0.781917	-0.0212278	0.292729	0.0539926
10.24	4.52781	309.19	-32.8674	-0.237123	0	-0.410153	0.00256115	0.174893	-0.0185914	-12.3651	170.366	31.3287	-0.12411	0	-0.782492	-0.0217793	0.300074	0.0551807
10.25	5.21216	313.348	-33.0941	-0.236076	0	-0.409759	0.00169605	0.101964	-0.0107689	-12.777	176.038	32.3406	-0.123968	0	-0.783076	-0.0222534	0.306603	0.0563271
10.26	5.90956	317.922	-33.4579	-0.235077	0	-0.409349	0.000337699	0.0181675	-0.00191194	-13.184	181.805	33.4338	-0.123867	0	-0.783658	-0.0226179	0.311895	0.0573574
10.27	6.60039	322.789	-33.9632	-0.234105	0	-0.408917	-0.00151222	-0.0739543	0.00778134	-13.5755	187.54	34.5829	-0.12379	0	-0.784227	-0.0228663	0.315889	0.0582509
10.28	7.26025	327.819	-34.605	-0.233141	0	-0.408463	-0.00379801	-0.17149	0.0181027	-13.9413	193.122	35.7584	-0.123722	0	-0.784771	-0.0230066	0.318698	0.05901
10.29	7.86245	332.888	-35.3668	-0.23216	0	-0.407987	-0.00641169	-0.271464	0.028841	-14.2729	198.433	36.9286	-0.123649	0	-0.78528	-0.023064	0.320654	0.059674
10.3	8.3805	337.888	-36.2217	-0.231138	0	-0.407492	-0.00920277	-0.371041	0.0397757	-14.5641	203.365	38.0616	-0.123562	0	-0.785744	-0.0230732	0.322182	0.0602993
10.31	8.78939	342.732	-37.1353	-0.230054	0	-0.406985	-0.0119915	-0.467596	0.0506645	-14.8113	207.824	39.1277	-0.123452	0	-0.786158	-0.0230661	0.323653	0.0609351
10.32	9.06807	347.36	-38.0701	-0.228891	0	-0.406471	-0.0145883	-0.558818	0.0612455	-15.0137	211.735	40.1006	-0.123315	0	-0.786514	-0.0230742	0.32541	0.0616295
10.33	9.20351	351.739	-38.9908	-0.227642	0	-0.405962	-0.01682	-0.642827	0.0712583	-15.1737	215.046	40.9595	-0.12315	0	-0.786812	-0.0231275	0.327769	0.0624297
